<svg xmlns:dc="http://purl.org/dc/elements/1.1/" xmlns:cc="http://creativecommons.org/ns#" xmlns:rdf="http://www.w3.org/1999/02/22-rdf-syntax-ns#" xmlns:svg="http://www.w3.org/2000/svg" xmlns="http://www.w3.org/2000/svg" xml:space="preserve" id="svg2" version="1.1" viewBox="-47.92 80.9 914.35 914.35"><metadata id="metadata8"><rdf:RDF><cc:Work rdf:about=""><dc:format>image/svg+xml</dc:format><dc:type rdf:resource="http://purl.org/dc/dcmitype/StillImage"/></cc:Work></rdf:RDF></metadata><defs id="defs6"><clipPath id="clipPath20" clipPathUnits="userSpaceOnUse"><path id="path18" d="M 14.173,102.9861 H 597.827 V 689.0139 H 14.173 Z"/></clipPath></defs><g transform="matrix(1.3333333,0,0,-1.3333333,0,1056)" id="g10"><g id="g12"/><g id="g14"><g clip-path="url(#clipPath20)" id="g16"><path id="path22" style="fill:#e1278e;fill-opacity:1;fill-rule:nonzero;stroke:none" d="m 125.7807,446.0959 c 0,-2.0092 -0.4058,-3.8832 -1.2175,-5.6219 -0.8116,-1.7388 -1.8937,-3.2861 -3.2448,-4.6372 -1.3543,-1.3543 -2.9397,-2.4167 -4.7543,-3.1887 -1.8162,-0.7721 -3.7298,-1.1581 -5.7391,-1.1581 -2.0092,0 -3.8816,0.386 -5.6219,1.1581 -1.7387,0.772 -3.2647,1.8344 -4.5778,3.1887 -1.31474,1.3511 -2.35896,2.8984 -3.13099,4.6372 -0.77368,1.7387 -1.1597,3.6127 -1.1597,5.6219 0,2.0093 0.38602,3.9229 1.1597,5.7391 0.77203,1.8146 1.81625,3.3999 3.13099,4.751 1.3131,1.3527 2.8391,2.4151 4.5778,3.1887 1.7403,0.7721 3.6127,1.1597 5.6219,1.1597 2.0093,0 3.9229,-0.3876 5.7391,-1.1597 1.8146,-0.7736 3.4,-1.836 4.7543,-3.1887 1.3511,-1.3511 2.4332,-2.9364 3.2448,-4.751 0.8117,-1.8162 1.2175,-3.7298 1.2175,-5.7391"/><g transform="matrix(1.649639,0,0,1.649639,125.7807,446.0959)" id="g24"><path id="path26" style="fill:none;stroke:#e1278e;stroke-width:1;stroke-linecap:butt;stroke-linejoin:miter;stroke-miterlimit:10;stroke-dasharray:none;stroke-opacity:1" d="M 0,0 C 0,-1.218 -0.246,-2.354 -0.738,-3.408 -1.23,-4.462 -1.886,-5.4 -2.705,-6.219 -3.526,-7.04 -4.487,-7.684 -5.587,-8.152 -6.688,-8.62 -7.848,-8.854 -9.066,-8.854 c -1.218,0 -2.353,0.234 -3.408,0.702 -1.054,0.468 -1.979,1.112 -2.775,1.933 -0.797,0.819 -1.43,1.757 -1.898,2.811 -0.469,1.054 -0.703,2.19 -0.703,3.408 0,1.218 0.234,2.378 0.703,3.479 0.468,1.1 1.101,2.061 1.898,2.88 0.796,0.82 1.721,1.464 2.775,1.933 1.055,0.468 2.19,0.703 3.408,0.703 1.218,0 2.378,-0.235 3.479,-0.703 1.1,-0.469 2.061,-1.113 2.882,-1.933 C -1.886,5.54 -1.23,4.579 -0.738,3.479 -0.246,2.378 0,1.218 0,0 Z"/></g><path id="path28" style="fill:#333232;fill-opacity:1;fill-rule:nonzero;stroke:none" d="m 100.7411,303.3332 h 20.63534 V 420.7661 H 100.7411 Z"/><path id="path30" style="fill:#333232;fill-opacity:1;fill-rule:nonzero;stroke:none" d="m 185.8564,303.3325 c -9.2726,0 -16.4023,2.5883 -21.3876,7.7665 -4.9852,5.1766 -7.4778,12.6362 -7.4778,22.3741 v 71.8731 h -14.1423 c -1.2373,0 -2.2815,0.3679 -3.1294,1.102 -0.8512,0.7324 -1.2752,1.8706 -1.2752,3.418 l 0.904,10.434 c 0,0 6.8691,-0.5015 11.4634,-0.1468 3.743,0.2903 6.1795,3.611 6.1795,8.7348 v 25.1982 c 0,3.3373 4.2165,6.7256 10.2031,6.6728 2.7812,-0.0247 10.4323,0 10.4323,0 v -40.459 h 33.9661 v -14.954 h -33.9661 v -70.4841 c 0,-4.9457 1.1976,-8.6161 3.5929,-11.0114 2.3953,-2.3969 5.4867,-3.5946 9.2743,-3.5946 2.1626,0 4.0366,0.292 5.6219,0.8711 1.5837,0.5773 2.9578,1.2174 4.1159,1.9119 1.1597,0.6961 2.1445,1.3329 2.9561,1.9136 0.8117,0.579 1.526,0.8677 2.1446,0.8677 1.0821,0 2.0472,-0.6566 2.8984,-1.9697 l 6.0294,-9.8533 c -3.5566,-3.324 -7.8457,-5.9321 -12.8688,-7.8242 -5.0248,-1.8955 -10.2014,-2.8407 -15.5347,-2.8407"/><g transform="matrix(1.649639,0,0,1.649639,530.7357,131.8061)" id="g32"><path id="path34" style="fill:none;stroke:#e1278e;stroke-width:10;stroke-linecap:butt;stroke-linejoin:miter;stroke-miterlimit:10;stroke-dasharray:none;stroke-opacity:1" d="m 0,0 h -285.667 c -3.073,0 -5.564,2.491 -5.564,5.564 v 285.593 c 0,11.04 8.949,19.989 19.988,19.989 H 14.35 c 3.073,0 5.565,-2.491 5.565,-5.564 V 19.915 C 19.915,8.916 10.999,0 0,0 Z"/></g><path id="path36" style="fill:#333232;fill-opacity:1;fill-rule:nonzero;stroke:none" d="m 364.5716,389.0012 c 0,9.1951 -1.2372,17.4466 -3.71,24.7496 -2.4745,7.3029 -5.9899,13.5056 -10.5478,18.6063 -4.5613,5.1006 -10.1057,9.002 -16.635,11.7091 -6.5326,2.7038 -13.8933,4.0565 -22.0854,4.0565 -8.1921,0 -15.5528,-1.3527 -22.082,-4.0565 -6.5326,-2.7071 -12.0985,-6.6085 -16.6944,-11.7091 -4.5992,-5.1007 -8.1344,-11.3034 -10.6072,-18.6063 -2.4744,-7.303 -3.71,-15.5545 -3.71,-24.7496 0,-9.1984 1.2356,-17.4465 3.71,-24.7495 2.4728,-7.303 6.008,-13.4875 10.6072,-18.5485 4.5959,-5.0628 10.1618,-8.946 16.6944,-11.6515 6.5292,-2.707 13.8899,-4.0581 22.082,-4.0581 8.1921,0 15.5528,1.3511 22.0854,4.0581 6.5293,2.7055 12.0737,6.5887 16.635,11.6515 4.5579,5.061 8.0733,11.2455 10.5478,18.5485 2.4728,7.303 3.71,15.5511 3.71,24.7495 m 32.0443,0 c 0,-12.2898 -2.1924,-23.6673 -6.2505,-34.1409 -4.0581,-10.4736 -9.7956,-19.5317 -17.2157,-27.1828 -7.4184,-7.6526 -16.3446,-13.6227 -26.7786,-17.9117 -10.4323,-4.2891 -22.0243,-6.4336 -34.7777,-6.4336 -12.6758,0 -24.2282,2.1445 -34.6622,6.4336 -10.4323,4.289 -19.3783,10.2591 -26.8363,17.9117 -7.4597,7.6511 -13.2351,16.7092 -17.3311,27.1828 -4.0961,10.4736 -6.1433,21.8511 -6.1433,34.1409 0,12.2866 2.0472,23.6658 6.1433,34.1393 4.096,10.4719 9.8714,19.5334 17.3311,27.1844 7.458,7.6511 16.404,13.6211 26.8363,17.9102 10.434,4.2907 21.9864,6.4352 34.6622,6.4352 8.5006,0 16.4997,-0.9848 23.9973,-2.9561 7.4944,-1.9714 14.375,-4.7543 20.6354,-8.3472 6.2604,-3.5946 11.8807,-7.9595 16.8659,-13.0998 4.9852,-5.1403 9.2165,-10.8777 12.6956,-17.2156 3.4758,-6.3363 6.1218,-13.2153 7.9397,-20.6337 1.8163,-7.4185 2.8886,-15.2262 2.8886,-23.4167"/><path id="path38" style="fill:#333232;fill-opacity:1;fill-rule:nonzero;stroke:none" d="m 504.8835,442.3262 c -0.9271,-1.6233 -1.9136,-2.8011 -2.9561,-3.5352 -1.0443,-0.7358 -2.3376,-1.102 -3.8833,-1.102 -1.6232,0 -3.3818,0.5988 -5.2755,1.7965 -1.8938,1.1976 -4.1538,2.5305 -6.7801,4.0004 -2.6295,1.4665 -5.7011,2.7994 -9.2165,3.9987 -3.517,1.1976 -7.6708,1.7981 -12.463,1.7981 -4.3287,0 -8.1146,-0.5229 -11.3611,-1.5655 -3.2448,-1.0442 -5.97,-2.4926 -8.1723,-4.3468 -2.2023,-1.8559 -3.8453,-4.0779 -4.9258,-6.6662 -1.0838,-2.5899 -1.6233,-5.4306 -1.6233,-8.5204 0,-3.9426 1.1003,-7.2271 3.3043,-9.8533 2.2022,-2.6279 5.1188,-4.8714 8.7529,-6.7256 3.6309,-1.8542 7.7649,-3.517 12.4037,-4.9835 4.6355,-1.4699 9.3897,-3.0337 14.2578,-4.6949 4.8697,-1.6628 9.6224,-3.5946 14.2595,-5.7952 4.6355,-2.2039 8.7711,-4.9868 12.4036,-8.3472 3.6309,-3.3619 6.5491,-7.4778 8.7514,-12.3475 2.2039,-4.8681 3.3042,-10.7804 3.3042,-17.7369 0,-7.5735 -1.295,-14.6637 -3.8833,-21.2705 -2.5899,-6.6084 -6.3758,-12.3673 -11.3594,-17.2734 -4.9852,-4.9093 -11.0707,-8.7711 -18.2582,-11.592 -7.1875,-2.8192 -15.4192,-4.2313 -24.6918,-4.2313 -5.3333,0 -10.5907,0.5213 -15.7672,1.5655 -5.1783,1.0426 -10.1437,2.5305 -14.8963,4.4623 -4.7526,1.9301 -9.2165,4.2494 -13.3885,6.9565 -4.1735,2.7038 -7.8836,5.7177 -11.1301,9.0417 l 9.1588,14.9523 c 0.7704,1.0822 1.7767,1.9911 3.0139,2.7252 1.2356,0.7341 2.5504,1.102 3.941,1.102 1.9317,0 4.0185,-0.7919 6.2604,-2.3772 2.2418,-1.5853 4.906,-3.3438 7.9991,-5.2739 3.0898,-1.9333 6.7041,-3.6918 10.8381,-5.2755 4.134,-1.5837 9.1011,-2.3771 14.8979,-2.3771 8.885,0 15.7656,2.1066 20.6337,6.3197 4.8697,4.2116 7.303,10.2591 7.303,18.1411 0,4.4046 -1.1003,8.0008 -3.3026,10.7821 -2.2039,2.7829 -5.1221,5.1171 -8.753,7.0126 -3.6342,1.8938 -7.7665,3.4956 -12.4036,4.812 -4.6372,1.3131 -9.3519,2.7417 -14.1441,4.289 -4.7922,1.5441 -9.5052,3.3983 -14.1423,5.5643 -4.6371,2.161 -8.7728,4.9852 -12.4053,8.461 -3.6325,3.4791 -6.5491,7.8275 -8.7513,13.042 -2.2023,5.2178 -3.3043,11.6514 -3.3043,19.3025 0,6.1036 1.2175,12.0555 3.6523,17.8524 2.4333,5.7968 5.9701,10.9354 10.6072,15.4175 4.6372,4.4821 10.3548,8.075 17.1563,10.782 6.7998,2.7038 14.6075,4.0581 23.4166,4.0581 9.8929,0 19.0137,-1.5473 27.3593,-4.6371 8.3471,-3.0931 15.4571,-7.4201 21.3315,-12.9843 z"/></g></g></g></svg>